<svg xmlns="http://www.w3.org/2000/svg" xmlns:svg="http://www.w3.org/2000/svg" id="svg3688" width="192" height="192" fill="#000" version="1.1" viewBox="0 0 192 192"><metadata id="metadata3694"/><defs id="defs3692"><filter id="filter4498" color-interpolation-filters="sRGB"><feFlood id="feFlood4488" flood-color="#000" flood-opacity=".498" result="flood"/><feComposite id="feComposite4490" in="flood" in2="SourceGraphic" operator="in" result="composite1"/><feGaussianBlur id="feGaussianBlur4492" in="composite1" result="blur" stdDeviation="4"/><feOffset id="feOffset4494" dx="0" dy="4" result="offset"/><feComposite id="feComposite4496" in="SourceGraphic" in2="offset" operator="over" result="composite2"/></filter><filter id="filter4510" color-interpolation-filters="sRGB"><feFlood id="feFlood4500" flood-color="#000" flood-opacity=".498" result="flood"/><feComposite id="feComposite4502" in="flood" in2="SourceGraphic" operator="in" result="composite1"/><feGaussianBlur id="feGaussianBlur4504" in="composite1" result="blur" stdDeviation="4"/><feOffset id="feOffset4506" dx="0" dy="4" result="offset"/><feComposite id="feComposite4508" in="SourceGraphic" in2="offset" operator="over" result="composite2"/></filter></defs><path id="path3684" fill="none" stroke-width="8" d="M 0,-2 H 192 V 190 H 0 Z"/><path id="path3686" fill="#ffc107" fill-opacity="1" stroke-width="8" d="M 160,67.52 V 30 H 122.48 L 96,3.52 69.52,30 H 32 V 67.52 L 5.52,94 32,120.48 V 158 H 69.52 L 96,184.48 122.48,158 H 160 V 120.48 L 186.48,94 Z" filter="url(#filter4498)"/><g id="layer2" display="inline" transform="translate(0,168)"><ellipse id="path5101" cx="96.041" cy="-74.044" fill="#ffd740" fill-opacity="1" fill-rule="nonzero" stroke="#ffd740" stroke-dasharray="none" stroke-linecap="round" stroke-linejoin="round" stroke-miterlimit="4" stroke-opacity="1" stroke-width="60.969" rx="16.102" ry="16.103"/></g><g id="layer1" display="inline" transform="translate(0,168)"><path id="path2" fill="#448aff" fill-opacity="1" stroke-width="5.82" d="M 96,-120.53035 V -137.9802 L 72.705129,-114.71374 96,-91.447272 v -17.449848 c 19.2765,0 34.94231,15.646698 34.94231,34.899704 0,5.874792 -1.45593,11.458728 -4.0766,16.28652 l 8.50263,8.492256 c 4.5425,-7.154432 7.2214,-15.646688 7.2214,-24.778776 0,-25.709454 -20.8489,-46.532934 -46.58974,-46.532934 z m 0,81.43263 c -19.276507,0 -34.942311,-15.646696 -34.942311,-34.899696 0,-5.874784 1.455934,-11.458744 4.076602,-16.286532 l -8.502618,-8.492262 c -4.542509,7.15444 -7.221415,15.646698 -7.221415,24.778794 0,25.709448 20.848909,46.532928 46.589742,46.532928 v 17.449856 L 119.29487,-33.281104 96,-56.547568 Z" filter="url(#filter4510)"/><path id="path4" fill="none" stroke-width="8" d="M 0,-170 H 192 V 22 H 0 Z"/></g></svg>