<svg xmlns="http://www.w3.org/2000/svg" xmlns:svg="http://www.w3.org/2000/svg" xmlns:xlink="http://www.w3.org/1999/xlink" id="Layer_1" width="192" height="192" x="0" y="0" version="1.1" viewBox="0 0 192 192" xml:space="preserve"><metadata id="metadata9"/><defs id="defs7"><linearGradient id="linearGradient3867"><stop id="stop3869" offset="0" stop-color="#fff" stop-opacity="1"/><stop id="stop3871" offset="1" stop-color="#cbcbcb" stop-opacity="1"/></linearGradient><linearGradient id="linearGradient3860"><stop id="stop3862" offset="0" stop-color="#fff" stop-opacity="1"/><stop id="stop3864" offset="1" stop-color="#999" stop-opacity="1"/></linearGradient><linearGradient id="linearGradient3767"><stop id="stop3769" offset="0" stop-color="#fff" stop-opacity="1"/><stop id="stop3771" offset="1" stop-color="#c4c4c4" stop-opacity="1"/></linearGradient><linearGradient id="linearGradient3773" x1="82.731" x2="132.936" y1="69.671" y2="134.017" gradientTransform="translate(-297,-3.5)" gradientUnits="userSpaceOnUse" xlink:href="#linearGradient3767"/><linearGradient id="linearGradient3773-3" x1="82.731" x2="132.936" y1="69.671" y2="134.017" gradientUnits="userSpaceOnUse" xlink:href="#linearGradient3767-5"/><linearGradient id="linearGradient3767-5"><stop id="stop3769-3" offset="0" stop-color="#fff" stop-opacity="1"/><stop id="stop3771-5" offset="1" stop-color="#c4c4c4" stop-opacity="1"/></linearGradient><linearGradient id="linearGradient3866" x1="71.771" x2="85.737" y1="85.316" y2="148.426" gradientUnits="userSpaceOnUse" xlink:href="#linearGradient3860"/><filter id="filter3954"><feGaussianBlur id="feGaussianBlur3956" stdDeviation="1.52"/></filter><filter id="filter3812"><feGaussianBlur id="feGaussianBlur3814" stdDeviation="1.265"/></filter><linearGradient id="linearGradient3873" x1="75" x2="91.5" y1="92.5" y2="144.5" gradientUnits="userSpaceOnUse" xlink:href="#linearGradient3867"/><linearGradient id="linearGradient3873-9" x1="75" x2="91.5" y1="92.5" y2="144.5" gradientUnits="userSpaceOnUse" xlink:href="#linearGradient3867-5"/><linearGradient id="linearGradient3867-5"><stop id="stop3869-4" offset="0" stop-color="#fff" stop-opacity="1"/><stop id="stop3871-3" offset="1" stop-color="#cbcbcb" stop-opacity="1"/></linearGradient><filter id="filter3929"><feGaussianBlur id="feGaussianBlur3931" stdDeviation=".523"/></filter></defs><path id="rect3784-6-0" fill="#333" fill-opacity="1" fill-rule="nonzero" stroke="none" d="M 68.21875 21.34375 C 59.90875 21.34375 53.21875 28.03375 53.21875 36.34375 L 53.21875 126.34375 C 53.21875 134.65375 59.90875 141.34375 68.21875 141.34375 L 141.375 141.34375 L 141.21875 141.40625 L 173.21875 154.34375 L 173.125 128.34375 L 173.09375 128.375 C 173.1836 127.70841 173.21875 127.03573 173.21875 126.34375 L 173.21875 36.34375 C 173.21875 28.03375 166.52875 21.34375 158.21875 21.34375 L 68.21875 21.34375 z" filter="url(#filter3812)" opacity=".8"/><rect id="rect3784-6" width="120" height="120" x="52" y="20" fill="#a59cca" fill-opacity="1" fill-rule="nonzero" stroke="none" ry="15"/><path id="path3804-6" fill="#7568ae" fill-opacity="1" fill-rule="nonzero" stroke="none" d="m -47.651278,44.984287 -31.991574,18.345344 0.108254,-36.878188 z" transform="matrix(-1.0002634,0,0,0.7050238,92.336171,108.3511)"/><rect id="rect3784-3" width="120" height="120" x="21.227" y="53.351" fill="#333" fill-opacity="1" fill-rule="nonzero" stroke="none" filter="url(#filter3954)" opacity=".8" ry="15"/><path id="path3804-9" fill="#333" fill-opacity="1" fill-rule="nonzero" stroke="none" d="m -47.651278,44.984287 -31.991574,18.345344 0.108254,-36.878188 z" filter="url(#filter3954)" opacity=".8" transform="matrix(1.0002634,0,0,0.7050238,100.89101,21.702348)"/><rect id="rect3784" width="120" height="120" x="20" y="52" fill="#7568ae" fill-opacity="1" fill-rule="nonzero" stroke="none" ry="15"/><path id="path3804" fill="#5a4e91" fill-opacity="1" fill-rule="nonzero" stroke="none" d="m -47.651278,44.984287 -31.991574,18.345344 0.108254,-36.878188 z" transform="matrix(1.0002634,0,0,0.7050238,99.663829,20.351103)"/><path id="path3033" fill="#fff" fill-opacity="1" stroke="none" d="M 80 78.375 C 69.50659 78.375 61 86.881589 61 97.375 C 61 104.50887 64.935339 110.72005 70.75 113.96875 L 67 145 L 93 145 L 89.25 113.96875 C 95.064661 110.72005 99 104.50887 99 97.375 C 99 86.881589 90.493411 78.375 80 78.375 z"/></svg>